<svg width="250" height="94" fill="none" xmlns="http://www.w3.org/2000/svg"><path d="M76.903 79.819H.419v2.81h76.484v-2.81Zm172.808 0h-77.328v2.81h77.328v-2.81Zm0-67.575h-42.158v8.11h42.158v-8.11ZM100.554 24.52h-6.625v6.417h6.625v-6.418Z" fill="#000"/><path d="M233.797 20.353h-10.331v34.003h10.331V20.353ZM64.356 24.52H54.025v29.836h10.331V24.519Zm78.16 40.014h-10.332l-20.132-21.242h10.33l20.134 21.242ZM11.292 24.52H.961v29.836h10.331V24.519Zm96.344 12.355h-7.84v17.48h7.84v-17.48Zm52.503 33.333h-72.12a5.654 5.654 0 0 0-5.652 5.651v11.782a5.652 5.652 0 0 0 5.652 5.651h72.124a5.654 5.654 0 0 0 5.222-3.488 5.65 5.65 0 0 0 .43-2.163V75.86a5.657 5.657 0 0 0-1.657-3.998 5.651 5.651 0 0 0-3.999-1.653Zm-15.476 7.407v-3.52h1.787v3.52h.962V73.56h1.79v4.055h.965v-3.52h1.792v5.31h-7.295l-.001-1.79ZM144 80.349h7.959v1.789h-7.958l-.001-1.79Zm-43.446-1.33h-5.73v7.97l5.038-1.257.433 1.735-7.962 1.983-.44-1.735 1.134-.283V73.809h1.789v3.42h5.731l.007 1.79Zm9.435 10.155h-7.519V73.812h1.787v3.686l4.731-2.106.734 1.633-5.459 2.429v7.93h5.731l-.005 1.79Zm11.821-3.857v3.822h-1.788v-2.622l-2.966 2.003-.999-1.484 3.96-2.67v-5.924h-1.832l-.384 6.27-1.785-.98.617-10.06 1.785.98-.123 2h1.727v-2.84h1.788v2.84h1.698v1.79h-1.692v4.72l1.053-.71 1 1.482-2.059 1.383Zm3.876 3.822-1.456-2.933 1.216-1.574 1.456 2.933-1.216 1.574Zm8.384-5.346h-1.412v5.381h-4.008v-1.79h2.219v-3.59h-6.49v-1.788h6.49v-.915h1.789v.913h1.409l.003 1.79Zm0-3.839h-9.691v-1.788h3.953v-1.812h-3.457v-1.788h3.457v-.754h1.787v.754h3.457v1.788h-3.457v1.812h3.948l.003 1.788Zm8.645 2.945v6.275h-1.789v-5.653l-.35.46-1.421-1.087 2.997-3.924 1.421 1.085L141.4 82.9h1.315Zm-2.139-4.457-1.421-1.087 2.997-3.924 1.421 1.085-2.997 3.926Zm7.029 9.343 1.336-1.026v-1.746h-2.386v1.77h-.039l-1.311 2.5-1.584-.83 1.144-2.183v-3.044h5.963v2.157l.917-.705 1.091 1.416-4.042 3.11-1.089-1.419Zm8.847 1.43-1.512-2.933-1.097 2.858-1.669-.64 1.668-4.349-1.086-2.107 1.589-.82.355.688 1.096-2.863v-3.165h-1.252v4.473h-1.788v-6.801h1.788v.535h1.252v-.535h1.79v.535h.318v1.788h-.318v3.518h-.011l-1.777 4.637 2.244 4.355-1.59.826ZM62.487 13.744h-6.37v6.369h6.37v-6.37Zm5.316-9.1h-6.37v6.37h6.37v-6.37ZM58.207.353h-4.292v4.293h4.292V.353Zm16.859 4.291h-4.292v4.293h4.292V4.644Zm88.185 19.876H143.33a8.571 8.571 0 0 0-8.574 8.571v12.835a8.573 8.573 0 0 0 8.574 8.573h19.921a8.573 8.573 0 0 0 8.573-8.573V33.091a8.574 8.574 0 0 0-8.573-8.572Zm.614 19.973a3.593 3.593 0 0 1-1.05 2.538 3.58 3.58 0 0 1-2.537 1.051h-13.977a3.586 3.586 0 0 1-3.587-3.589v-9.972a3.59 3.59 0 0 1 3.587-3.587h13.977a3.588 3.588 0 0 1 3.587 3.587v9.972Zm31.895-31.93h-20.716v8.497h16.845a4.462 4.462 0 0 1 4.464 4.464v.572a4.461 4.461 0 0 1-4.464 4.464h-16.845v4.728h20.716a8.574 8.574 0 0 0 8.572-8.573v-5.573a8.566 8.566 0 0 0-8.572-8.58Z" fill="#000"/><path d="M195.76 54.356h-20.716v-8.497h16.845a4.462 4.462 0 0 0 4.464-4.464v-.565a4.46 4.46 0 0 0-4.464-4.464h-16.845V31.64h20.716a8.573 8.573 0 0 1 8.572 8.571v5.573a8.573 8.573 0 0 1-8.572 8.572ZM123.19 24.52H99.795v6.416h20.079a2.97 2.97 0 0 1 2.1 5.068 2.97 2.97 0 0 1-2.1.87h-20.08v6.417h23.396a8.571 8.571 0 0 0 8.573-8.572v-1.628a8.569 8.569 0 0 0-8.573-8.572ZM78.642 48.082a3.589 3.589 0 0 1-3.587-3.589v-9.972a3.587 3.587 0 0 1 3.587-3.587h15.79v-6.417H75.22a8.569 8.569 0 0 0-8.568 8.569v12.842a8.57 8.57 0 0 0 8.568 8.569h19.212v-6.418l-15.79.003Z" fill="#000"/><path d="M99.796 36.875v6.417h20.165v-6.417H99.796ZM51.808 22.476v-9.228H48.83a7.151 7.151 0 0 0-3.444.861c-1.69.925-3.864 2.807-4.977 6.579-1.98 6.705-7.12 23.722-7.12 23.722s-.64.767-1.027 0c-.387-.767-7.28-23.785-7.28-23.785s-2.01-6.42-7.087-7.057c-5.077-.638-9.035-.095-10.823.99-1.788 1.085-5.977 4.757-6.118 9.962-.141 5.204 10.331 0 10.331 0s.48-2.332 1.917-2.363c1.437-.03 3.16 2.363 3.575 3.543.415 1.18 8.877 25.447 8.877 25.447s.766 2.14 2.968 3.065c2.203.926 8.398 0 8.398 0s1.66-.064 3.16-4.15c1.5-4.086 8.015-24.967 8.015-24.967s.866-2.938 3.612-2.62Z" fill="#000"/></svg>