<svg width="282" height="77" fill="none" xmlns="http://www.w3.org/2000/svg"><path d="M.24 23.722v28.487s.343 2.383 3.23.828a379.453 379.453 0 0 0 6.982-3.872s1.079-.51 1.079-1.129v-19.77s-.05-.247-.52-.557c-.434-.284-7.85-4.62-7.85-4.62s-1.773-1.024-2.921.633ZM29.938.773 4.782 15.27s-1.932 1.511.865 3.203a371.26 371.26 0 0 0 6.877 4.027s.984.662 1.532.35l17.455-10.066s.192-.166.233-.73c.038-.518.192-9.096.192-9.096S31.945.453 29.938.773Zm8.791 0L63.883 15.27s1.937 1.51-.863 3.203a359.638 359.638 0 0 1-6.877 4.026s-.984.663-1.528.35c-1.783-1.024-17.459-10.06-17.459-10.06s-.192-.166-.235-.73c-.037-.518-.19-9.097-.19-9.097s-.014-2.51 1.998-2.19Zm-8.791 74.474-25.156-14.5s-1.932-1.509.865-3.199c3.012-1.823 6.877-4.028 6.877-4.028s.984-.663 1.532-.35l17.455 10.06s.192.166.233.731c.038.517.192 9.097.192 9.097s.009 2.51-1.998 2.19Zm7.85-11.394a1.168 1.168 0 0 0-.025.187c-.027.36-.128 5.61-.19 9.048 0 .277.108.968.425 1.236a.611.611 0 0 0 .462.125l24.936-14.376c.083-.077.322-.331.302-.611-.025-.34-.43-.769-1.109-1.18a360.817 360.817 0 0 0-6.858-4.015l-.055-.035a1.952 1.952 0 0 0-.685-.291 56670.84 56670.84 0 0 0-17.203 9.912Zm.606 12.278a2.24 2.24 0 0 1-1.491-.53c-.995-.847-1.011-2.36-1.011-2.53.016-.893.156-8.63.194-9.153.058-.797.353-1.16.522-1.31l.13-.09s15.678-9.038 17.46-10.06c.9-.526 2.023.119 2.39.364.349.197 4.014 2.292 6.87 4.022 1.216.734 1.86 1.584 1.917 2.525.071 1.206-.865 1.972-.973 2.057l-.096.064-25.29 14.583-.153.023a2.992 2.992 0 0 1-.469.035Zm19.635-28.148c.17.18.372.328.596.433l.06.031c.038.022 3.894 2.22 6.96 3.861.712.385 1.304.517 1.619.363a.85.85 0 0 0 .373-.54V24.024c-.625-.677-1.42-.32-1.657-.186-2.965 1.733-7.499 4.391-7.802 4.592-.05.032-.1.067-.146.106l-.003 19.447Zm8.925 6.433c-.623 0-1.326-.208-2.101-.624a367.552 367.552 0 0 1-6.975-3.868c-.4-.194-1.53-.829-1.53-1.874l.016-19.932c.044-.22.218-.662.89-1.095.435-.287 7.125-4.197 7.882-4.64.849-.497 2.777-.94 4.035.869l.15.217-.007 28.871c-.02.13-.216 1.292-1.283 1.831-.335.166-.704.25-1.077.245Zm72.691-13.641h-6.817c-3.112 0-4.832 1.455-4.832 3.906 0 2.384 1.586 3.977 4.961 3.977 2.386 0 3.906-.199 5.426-1.657.929-.86 1.259-2.25 1.259-4.372l.003-1.854Zm.199 14.56v-2.983c-2.32 2.32-4.497 3.314-8.468 3.314-3.904 0-6.752-.995-8.8-3.044-1.858-1.921-2.852-4.702-2.852-7.747 0-5.49 3.773-9.992 11.787-9.992h8.134v-1.716c0-3.774-1.852-5.428-6.416-5.428-3.314 0-4.83.795-6.618 2.847l-5.499-5.36c3.381-3.708 6.688-4.768 12.45-4.768 9.659 0 14.689 4.108 14.689 12.178v22.702l-8.407-.004Zm34.424-.005V34.494c0-4.701-2.974-6.287-5.688-6.287-2.715 0-5.759 1.579-5.759 6.287v20.844h-8.607V20.85h8.408v3.177c2.251-2.385 5.424-3.571 8.606-3.571 3.438 0 6.217 1.125 8.138 3.042 2.78 2.78 3.508 6.023 3.508 9.793v22.04h-8.606Zm32.03-14.555h-6.814c-3.112 0-4.827 1.455-4.827 3.906 0 2.384 1.581 3.977 4.958 3.977 2.385 0 3.909-.199 5.427-1.657.928-.86 1.256-2.25 1.256-4.372v-1.854Zm.201 14.56v-2.983c-2.32 2.32-4.499 3.314-8.473 3.314-3.901 0-6.749-.995-8.801-3.044-1.852-1.921-2.845-4.702-2.845-7.747 0-5.49 3.772-9.992 11.78-9.992h8.138v-1.716c0-3.774-1.847-5.428-6.419-5.428-3.315 0-4.827.795-6.615 2.847l-5.494-5.36c3.377-3.708 6.685-4.768 12.442-4.768 9.662 0 14.693 4.108 14.693 12.178v22.702l-8.406-.004Zm31.839-14.56h-6.814c-3.112 0-4.83 1.455-4.83 3.906 0 2.384 1.584 3.977 4.961 3.977 2.385 0 3.904-.199 5.424-1.657.931-.86 1.259-2.25 1.259-4.372v-1.854Zm.201 14.56v-2.983c-2.32 2.32-4.499 3.314-8.47 3.314-3.904 0-6.747-.995-8.801-3.044-1.856-1.921-2.848-4.702-2.848-7.747 0-5.49 3.776-9.992 11.783-9.992h8.135v-1.716c0-3.774-1.853-5.428-6.415-5.428-3.314 0-4.832.795-6.616 2.847l-5.5-5.36c3.38-3.708 6.691-4.768 12.448-4.768 9.667 0 14.69 4.108 14.69 12.178v22.702l-8.406-.004Zm34.417-.005V34.494c0-4.701-2.983-6.287-5.689-6.287s-5.758 1.586-5.758 6.287v20.844h-8.605V20.85h8.406v3.177c2.25-2.385 5.425-3.571 8.602-3.571 3.439 0 6.217 1.125 8.143 3.042 2.779 2.78 3.506 6.023 3.506 9.793v22.04h-8.605Zm-159.919-8.537a30.68 30.68 0 0 1-2.28.637c-.758.182-1.526.323-2.3.42-2.336.297-4.308.136-6.007-.538a8.157 8.157 0 0 1-2.926-1.96 8.885 8.885 0 0 1-1.888-3.127 12.357 12.357 0 0 1-.67-4.198 13.09 13.09 0 0 1 .624-4.122 8.834 8.834 0 0 1 1.791-3.157 8.122 8.122 0 0 1 2.88-2.024c2.246-.956 5.175-.922 8.332-.178 1.507.346 2.969.867 4.355 1.552l.477.237v-8.579l-.237-.07a31.044 31.044 0 0 0-4.04-.88 37.05 37.05 0 0 0-5.529-.35c-2.682 0-5.152.427-7.341 1.27a15.808 15.808 0 0 0-9.305 9.305c-.855 2.2-1.289 4.688-1.289 7.392 0 2.791.4 5.287 1.19 7.42a14.416 14.416 0 0 0 3.45 5.42 14.626 14.626 0 0 0 5.488 3.3c2.131.733 4.57 1.102 7.247 1.102 1.796.006 3.589-.15 5.357-.463a25.547 25.547 0 0 0 4.971-1.436l.207-.084v-7.865l-.462.2c-.648.278-1.351.54-2.095.776Z" fill="#000"/></svg>