<svg width="283" height="58" fill="none" xmlns="http://www.w3.org/2000/svg"><path d="M13.228 1.583v1.41l-.123 11.043.123 15.054H.883l.127-16.46L.865 2.574l.018-.994 12.345.003Zm29.404 13.37v-3.36l-.062-5.33-.026-2.44-.035-1.526c0-.717.248-1.085.742-1.085.295 0 .497.084.613.257.116.172.166.48.166.956v.278c0 .283-.017.742-.017 1.389l-.06 6.785-.046 6.218.054 6.547.069 6.56c-2.77-1.732-6.818-4.125-12.146-7.18-5.329-3.054-9.648-5.455-12.959-7.203l.023.982.207 10.404.019 1.392c0 .578-.267.865-.81.865-.544 0-.839-.357-.839-1.064l.018-1.41.023-2.276.082-10.332L17.525.47c5.444 3.368 13.81 8.196 25.1 14.484h.007Zm30.4 0v-3.36l-.064-5.33-.027-2.44-.035-1.526c0-.717.249-1.085.743-1.085.298 0 .497.084.613.257.116.172.166.48.166.956v.278c-.009.283-.012.742-.012 1.389l-.066 6.785-.045 6.218.053 6.547.07 6.56c-2.762-1.732-6.81-4.125-12.143-7.18-5.334-3.054-9.653-5.455-12.957-7.203l.018.982.207 10.404.023 1.392c0 .578-.268.865-.815.865-.547 0-.839-.357-.839-1.064l.024-1.41.018-2.276.084-10.332L47.922.47c5.444 3.368 13.811 8.196 25.104 14.484h.006ZM92.332.762c2.117 0 4.21.459 6.132 1.345a14.146 14.146 0 0 1 6.653 6.153 14.777 14.777 0 0 1 1.823 7.23 14.451 14.451 0 0 1-7.857 12.76 14.533 14.533 0 0 1-6.764 1.67 14.205 14.205 0 0 1-7.096-1.896c-2.962-1.663-5.077-4.001-6.343-7.012a14.43 14.43 0 0 1 .663-12.737 14.24 14.24 0 0 1 6.59-6.144A14.564 14.564 0 0 1 92.32.764l.013-.003Zm-1.56 1.36-.127 13.113.103 10.908.023 2.455c.431.08.868.12 1.306.122 2.959 0 5.603-.82 7.934-2.459a12.869 12.869 0 0 0 4.617-5.8 13.644 13.644 0 0 0 1.004-5.137 13.212 13.212 0 0 0-1.685-6.53 12.717 12.717 0 0 0-5.83-5.469A13.658 13.658 0 0 0 92.195 2c-.477 0-.954.042-1.423.126V2.12Zm19.25 22.308c.242 0 .525.18.847.544a11.272 11.272 0 0 0 3.682 2.634c1.348.636 2.817.976 4.308.995 1.569 0 2.353-.474 2.353-1.43 0-.604-.275-1.285-.818-2.05-.544-.766-1.856-2.256-3.943-4.493-2.615-2.833-4.36-4.935-5.236-6.305-1.148-1.813-1.723-3.54-1.727-5.18 0-2.467 1.101-4.488 3.303-6.065 2.154-1.544 4.815-2.32 7.989-2.32a13.884 13.884 0 0 1 6.094 1.338 8.08 8.08 0 0 1 1.788 1.203c.497.452.759.838.759 1.148a.528.528 0 0 1-.215.404.61.61 0 0 1-.424.192c-.226 0-.567-.207-1.008-.62a8.57 8.57 0 0 0-2.847-1.683 9.559 9.559 0 0 0-3.392-.663c-.673 0-1.216.141-1.639.433a1.311 1.311 0 0 0-.631 1.12c0 .55.26 1.216.777 2.015.517.799 1.405 1.84 2.652 3.162 3.941 4.198 6.357 7.028 7.246 8.492.921 1.547 1.382 3.038 1.382 4.474a6.597 6.597 0 0 1-.984 3.46 7.811 7.811 0 0 1-2.738 2.681c-2.224 1.326-4.94 1.989-8.149 1.989-2.943 0-5.543-.764-7.789-2.29-1.566-1.07-2.351-1.912-2.351-2.515a.643.643 0 0 1 .21-.468.67.67 0 0 1 .497-.214l.004.012Zm37.246-22.846v1.41l-.123 11.043.123 15.054h-12.345l.126-16.461-.146-10.055.02-.994 12.345.003Zm17.058 0-.061 4.214-.061 6.703.011 4.898.068 10.373 1.447.019 8.602-.141 1.569-.024c.789 0 1.183.242 1.183.723 0 .424-.213.658-.64.701-.099.015-.409.027-.929.041h-23.531l.05-7.655.033-4.695.043-5.32-.061-8.106.018-1.731h12.259Zm27.599 0v1.41l-.123 11.043.123 15.054H179.58l.122-16.461-.142-10.055.02-.994 12.345.003Zm16.48.558-.123 14.274.123 12.12c.574.086 1.153.134 1.733.143a12.434 12.434 0 0 0 4.047-.708 12.877 12.877 0 0 0 3.667-1.912 13.86 13.86 0 0 0 2.121-2.095 14.571 14.571 0 0 0 1.76-2.558c.26-.486.536-.726.828-.726.444 0 .663.182.663.562 0 .38-.331 1.085-.994 2.05a17.44 17.44 0 0 1-2.186 2.591 14.033 14.033 0 0 1-6.07 3.449 14.974 14.974 0 0 1-4.032.585 14.371 14.371 0 0 1-5.668-1.212c-3.036-1.277-5.348-3.297-6.937-6.06a14.612 14.612 0 0 1-1.315-11.61 14.617 14.617 0 0 1 7.612-8.866A14.32 14.32 0 0 1 209.942.76c3.875 0 7.222 1.31 10.042 3.93 1.339 1.252 2.014 2.155 2.014 2.7a.565.565 0 0 1-.199.406.663.663 0 0 1-.449.179c-.267 0-.582-.26-.96-.784a12.094 12.094 0 0 0-4.572-3.793 13.31 13.31 0 0 0-5.99-1.404 6.632 6.632 0 0 0-1.412.146h-.011Zm30.531-1.38c2.117 0 4.209.459 6.132 1.345a14.147 14.147 0 0 1 6.653 6.153 14.754 14.754 0 0 1 1.823 7.23 14.02 14.02 0 0 1-1.391 6.083 14.155 14.155 0 0 1-6.462 6.673 14.535 14.535 0 0 1-6.765 1.67 14.211 14.211 0 0 1-7.097-1.895c-2.963-1.664-5.077-4.001-6.343-7.013a14.465 14.465 0 0 1 .663-12.736 14.252 14.252 0 0 1 6.592-6.145 14.547 14.547 0 0 1 6.185-1.365h.01Zm-1.562 1.36-.126 13.113.103 10.908.023 2.455c.431.08.868.12 1.306.122 2.959 0 5.604-.82 7.935-2.459a12.869 12.869 0 0 0 4.617-5.8 13.66 13.66 0 0 0 .994-5.137 13.212 13.212 0 0 0-1.685-6.53 12.703 12.703 0 0 0-5.83-5.469A13.638 13.638 0 0 0 238.789 2c-.477 0-.954.042-1.423.126l.008-.004Zm44.227 12.833v-3.36l-.061-5.332-.026-2.439-.034-1.526c0-.717.249-1.085.743-1.085.295 0 .497.084.611.257.115.172.166.48.166.956v.278c0 .283-.015.742-.015 1.389l-.061 6.785-.047 6.218.055 6.547.068 6.56c-2.767-1.732-6.816-4.125-12.146-7.18-5.331-3.054-9.65-5.455-12.957-7.203l.023.982.207 10.404.018 1.392c0 .578-.268.865-.812.865-.543 0-.838-.357-.838-1.064l.02-1.41.023-2.276.08-10.332-.123-13.91c5.444 3.368 13.811 8.196 25.1 14.484h.006Z" fill="#000"/><path fill-rule="evenodd" clip-rule="evenodd" d="M90.57 28.453a13.16 13.16 0 0 1 0-26.116h.018v26.116h-.019Z" fill="#000"/><path d="M3.176 40.087h1.692L2.61 56.78H.918l2.258-16.693Zm5.987 4.348h1.523l-.255 1.937c1.26-1.491 2.72-2.24 4.386-2.24 1.283 0 2.312.39 3.097 1.17.786.778 1.179 1.832 1.179 3.148a22.691 22.691 0 0 1-.256 2.666l-.765 5.666H16.52l.769-5.666c.136-.885.218-1.777.245-2.673 0-.86-.264-1.549-.789-2.076-.525-.527-1.216-.792-2.07-.792a4.51 4.51 0 0 0-2.341.643 4.425 4.425 0 0 0-1.675 1.743c-.395.738-.701 1.9-.912 3.49l-.712 5.334h-1.55l1.677-12.35Zm15.484 0h1.525l-.257 1.937c1.26-1.491 2.72-2.24 4.39-2.24 1.279 0 2.32.39 3.093 1.17.774.778 1.178 1.832 1.178 3.148a22.862 22.862 0 0 1-.252 2.666l-.768 5.666h-1.548l.765-5.666a21.78 21.78 0 0 0 .246-2.673c0-.86-.264-1.549-.79-2.076-.524-.527-1.215-.792-2.069-.792a4.501 4.501 0 0 0-2.335.64 4.417 4.417 0 0 0-1.677 1.743c-.394.738-.698 1.901-.91 3.49l-.713 5.334h-1.55l1.672-12.347Zm21.077-.303a5.762 5.762 0 0 1 2.901.754 5.303 5.303 0 0 1 2.06 2.094c.503.934.757 1.98.739 3.041a7.17 7.17 0 0 1-.941 3.594 6.706 6.706 0 0 1-2.542 2.562 7.15 7.15 0 0 1-3.603.906c-1.665 0-3.03-.543-4.108-1.622-1.077-1.079-1.607-2.466-1.607-4.143a7.266 7.266 0 0 1 .941-3.632 6.916 6.916 0 0 1 2.592-2.611 7.021 7.021 0 0 1 3.568-.945v.002Zm-.03 1.51a5.56 5.56 0 0 0-2.784.738 5.044 5.044 0 0 0-2.002 2.019 5.8 5.8 0 0 0-.704 2.838c0 1.296.406 2.355 1.21 3.165.803.81 1.846 1.217 3.12 1.217a5.281 5.281 0 0 0 2.706-.708 5.068 5.068 0 0 0 1.934-2.041c.472-.88.718-1.865.715-2.864a4.706 4.706 0 0 0-.536-2.272 3.793 3.793 0 0 0-1.517-1.54 4.275 4.275 0 0 0-2.142-.551Zm9.462-1.207h1.619l3.12 9.043 5.218-9.043h1.727L59.714 56.78h-.306l-4.252-12.345ZM81.4 56.78h-1.6l.248-1.86c-1.436 1.444-3.074 2.166-4.915 2.163-1.668 0-3.043-.539-4.126-1.617-1.082-1.078-1.622-2.468-1.619-4.17a6.895 6.895 0 0 1 2.113-5.053c1.405-1.404 3.063-2.108 4.971-2.111a5.55 5.55 0 0 1 2.715.64 5.188 5.188 0 0 1 1.952 2.003l.315-2.34h1.625L81.401 56.78Zm-6.075-1.138a5.525 5.525 0 0 0 2.782-.72 5.18 5.18 0 0 0 1.989-2.072 6.11 6.11 0 0 0 .734-2.943c0-1.274-.404-2.31-1.21-3.11-.807-.8-1.853-1.2-3.148-1.2a5.247 5.247 0 0 0-3.885 1.643 5.529 5.529 0 0 0-1.62 4.039c0 1.307.403 2.36 1.21 3.161.808.804 1.857 1.202 3.148 1.202ZM89.97 39.807h1.573l-.62 4.628h2.485l-.18 1.395h-2.486l-1.466 10.95h-1.593l1.492-10.95h-2.113l.195-1.395h2.107l.606-4.628Zm8.196-.443a1.28 1.28 0 0 1 1.177 1.758c-.064.154-.16.294-.28.41a1.24 1.24 0 0 1-.897.368 1.268 1.268 0 0 1 0-2.536Zm-1.248 5.071h1.492L96.788 56.78h-1.55l1.681-12.345Zm11.84-.303a5.76 5.76 0 0 1 2.902.754 5.332 5.332 0 0 1 2.063 2.094c.501.934.755 1.981.739 3.041a7.188 7.188 0 0 1-.941 3.594 6.72 6.72 0 0 1-2.542 2.562 7.169 7.169 0 0 1-3.606.906c-1.657 0-3.025-.54-4.105-1.622-1.075-1.085-1.607-2.466-1.607-4.143a7.245 7.245 0 0 1 .941-3.632 6.908 6.908 0 0 1 2.592-2.611 7.014 7.014 0 0 1 3.564-.945v.002Zm-.026 1.51a5.586 5.586 0 0 0-2.788.738 5.037 5.037 0 0 0-1.998 2.019 5.8 5.8 0 0 0-.704 2.838c0 1.296.402 2.355 1.206 3.165.804.81 1.849 1.217 3.124 1.217a5.282 5.282 0 0 0 2.706-.708 5.06 5.06 0 0 0 1.928-2.041 5.98 5.98 0 0 0 .721-2.864 4.702 4.702 0 0 0-.537-2.272 3.792 3.792 0 0 0-1.516-1.54 4.287 4.287 0 0 0-2.142-.551Zm10.969-1.207h1.525l-.257 1.937c1.256-1.491 2.721-2.24 4.386-2.24 1.283 0 2.312.39 3.098 1.17.785.778 1.179 1.832 1.179 3.148a22.476 22.476 0 0 1-.256 2.666l-.766 5.666h-1.551l.771-5.666a22.16 22.16 0 0 0 .243-2.673c0-.86-.263-1.549-.789-2.076-.525-.527-1.216-.792-2.069-.792a4.502 4.502 0 0 0-2.335.64 4.413 4.413 0 0 0-1.677 1.743c-.398.738-.702 1.901-.912 3.49l-.712 5.334h-1.549l1.671-12.347Zm35.794-4.348-.203 1.629h-6.414l-.739 5.468h6.408l-.207 1.58h-6.415l-1.087 8.021h-1.657l2.258-16.698h8.056Zm9.458 4.045a5.764 5.764 0 0 1 2.902.754 5.298 5.298 0 0 1 2.059 2.094 6.19 6.19 0 0 1 .74 3.041 7.177 7.177 0 0 1-.942 3.594 6.7 6.7 0 0 1-2.542 2.562 7.147 7.147 0 0 1-3.602.906c-1.657 0-3.031-.543-4.108-1.622-1.077-1.079-1.607-2.466-1.607-4.143a7.256 7.256 0 0 1 .941-3.632 6.919 6.919 0 0 1 2.591-2.611 7.023 7.023 0 0 1 3.568-.945v.002Zm-.03 1.51a5.566 5.566 0 0 0-2.789.742 5.049 5.049 0 0 0-2.001 2.018 5.8 5.8 0 0 0-.705 2.839c0 1.295.406 2.354 1.21 3.165.804.81 1.846 1.216 3.12 1.216a5.272 5.272 0 0 0 2.706-.708 5.063 5.063 0 0 0 1.934-2.041c.472-.88.718-1.865.716-2.864a4.702 4.702 0 0 0-.537-2.272 3.788 3.788 0 0 0-1.514-1.54 4.291 4.291 0 0 0-2.145-.55l.005-.004Zm10.321-1.207h1.569l-.21 1.548a4.654 4.654 0 0 1 1.546-1.36 3.856 3.856 0 0 1 1.856-.498c.487.007.967.115 1.41.318l-.748 1.454a2.484 2.484 0 0 0-2.651.33 4.109 4.109 0 0 0-1.326 1.675c-.331.734-.616 1.947-.853 3.637l-.723 5.23h-1.546l1.676-12.334Zm36.326-2.047-1.011 1.396c-1.767-1.657-3.783-2.486-6.048-2.486a8.345 8.345 0 0 0-4.143 1.079 7.957 7.957 0 0 0-3.009 2.91 7.57 7.57 0 0 0-1.084 3.93 6.565 6.565 0 0 0 .829 3.326 5.84 5.84 0 0 0 2.411 2.28c1.12.565 2.36.85 3.614.829 2.068 0 3.995-.651 5.78-1.954l.931 1.326c-1.325.857-2.468 1.434-3.427 1.731a11.097 11.097 0 0 1-3.314.451c-2.32 0-4.205-.578-5.657-1.735-1.938-1.552-2.905-3.622-2.902-6.21 0-2.669.968-4.933 2.902-6.795 1.934-1.861 4.337-2.79 7.208-2.789a9.941 9.941 0 0 1 3.586.617c1.072.413 2.183 1.112 3.314 2.103l.02-.009Zm15.531 8.534h-11.028c-.024 1.469.358 2.622 1.143 3.462.785.84 1.835 1.259 3.148 1.258a5.51 5.51 0 0 0 2.42-.532 4.973 4.973 0 0 0 1.838-1.492l1.186.957a6.396 6.396 0 0 1-2.346 1.822 7.274 7.274 0 0 1-3.136.685c-1.941 0-3.397-.598-4.368-1.795a6.215 6.215 0 0 1-1.461-4.036 6.954 6.954 0 0 1 .982-3.53 7.11 7.11 0 0 1 6.209-3.591c1.581 0 2.895.535 3.933 1.602 1.037 1.068 1.561 2.428 1.561 4.08-.005.37-.031.74-.076 1.109l-.005.001Zm-1.459-1.395c-.049-1.16-.444-2.091-1.194-2.817a3.946 3.946 0 0 0-2.829-1.074 5.407 5.407 0 0 0-3.27 1.036 5.578 5.578 0 0 0-2.005 2.849l9.298.006Zm6.122-5.092h1.572l-.21 1.548a4.606 4.606 0 0 1 1.542-1.36 3.866 3.866 0 0 1 1.861-.498c.487.008.966.116 1.409.318l-.751 1.454a2.476 2.476 0 0 0-2.651.33 4.112 4.112 0 0 0-1.326 1.675c-.331.734-.616 1.947-.853 3.637l-.719 5.23h-1.551l1.677-12.334Zm10.87-4.628h1.569l-.623 4.628h2.486l-.184 1.395h-2.486l-1.466 10.95h-1.593l1.482-10.95h-2.11l.196-1.395h2.101l.628-4.628Zm17.797 16.973h-1.601l.249-1.86c-1.436 1.444-3.073 2.166-4.912 2.163-1.672 0-3.049-.539-4.129-1.617-1.081-1.079-1.616-2.47-1.616-4.17a6.886 6.886 0 0 1 2.11-5.054c1.405-1.403 3.062-2.107 4.971-2.11a5.55 5.55 0 0 1 2.714.64 5.213 5.213 0 0 1 1.952 2.003l.318-2.34h1.623l-1.679 12.345Zm-6.075-1.138a5.528 5.528 0 0 0 2.783-.72 5.175 5.175 0 0 0 1.988-2.072 6.06 6.06 0 0 0 .736-2.943c0-1.274-.403-2.31-1.21-3.11-.809-.8-1.853-1.2-3.148-1.2a5.246 5.246 0 0 0-3.886 1.643A5.525 5.525 0 0 0 250 51.279c0 1.307.403 2.36 1.209 3.161.807.804 1.856 1.202 3.149 1.202h-.002Zm13.665-16.278a1.27 1.27 0 0 1 1.267 1.27 1.218 1.218 0 0 1-.371.898 1.238 1.238 0 0 1-.896.368 1.268 1.268 0 1 1 0-2.536Zm-1.248 5.071h1.501L266.65 56.78h-1.549l1.672-12.345Zm6.252 0h1.523l-.257 1.937c1.259-1.491 2.723-2.24 4.388-2.24 1.281 0 2.313.39 3.095 1.17.786.78 1.18 1.832 1.18 3.148a22.27 22.27 0 0 1-.257 2.666l-.765 5.666h-1.55l.769-5.666c.136-.885.218-1.777.246-2.673 0-.86-.266-1.549-.789-2.076-.524-.527-1.218-.792-2.072-.792a4.498 4.498 0 0 0-2.334.64 4.406 4.406 0 0 0-1.677 1.743c-.395.738-.699 1.901-.912 3.49l-.711 5.334h-1.551l1.674-12.347Z" fill="#000"/></svg>