<svg width="282" height="67" fill="none" xmlns="http://www.w3.org/2000/svg"><path d="M40.461 22.99c-.09-1.866-.691-3.596-2.371-4.663a6.39 6.39 0 0 0-1.06-.497s.238-.178.364-.28c.498-.47.963-.976 1.39-1.512a6.038 6.038 0 0 0 1.069-3.511V7.743c0-2.033-.704-2.998-1.75-4.17-1.89-2.12-4.537-2.778-7.147-2.816-6.77-.1-29.41-.085-29.41-.085A1.55 1.55 0 0 0 0 2.215v33.042a1.551 1.551 0 0 0 1.546 1.545h24.4c3.25 0 5.868-.166 8.712-.923 3.655-.971 5.498-3.396 5.788-6.874.166-1.988.108-4.01.01-6.01l.005-.005ZM7.682 7.955a.797.797 0 0 1 .799-.797h22.37a1.594 1.594 0 0 1 1.593 1.59v4.607a1.593 1.593 0 0 1-1.592 1.596H8.48a.799.799 0 0 1-.799-.798V7.955ZM32.8 28.52a1.594 1.594 0 0 1-1.598 1.594H8.488a.797.797 0 0 1-.8-.797V21.92a.797.797 0 0 1 .8-.797h22.725a1.596 1.596 0 0 1 1.597 1.594l-.01 5.803ZM60.179.64a.74.74 0 0 0-.738.737v5.04a.737.737 0 0 0 .738.736s15.102-.008 16.256.01c.966.013 1.058.126 1.087 1.11.01.299 0 27.647 0 27.647a.74.74 0 0 0 .737.738h6.12a.739.739 0 0 0 .737-.738V8.548c0-1.352.038-1.39 1.364-1.39 1.942 0 15.722.028 15.722.028a.736.736 0 0 0 .743-.737v-5.04a.745.745 0 0 0-.743-.737L60.179.64Zm-5.611.847a.797.797 0 0 0-.799-.792h-6.004a.797.797 0 0 0-.797.792v34.377a.8.8 0 0 0 .797.793h6.004a.8.8 0 0 0 .799-.793V1.487ZM221.677.695a1.277 1.277 0 0 0-1.275 1.273v33.415a1.281 1.281 0 0 0 1.275 1.274h5.047a1.282 1.282 0 0 0 1.278-1.274V1.968a1.28 1.28 0 0 0-1.278-1.273h-5.047Zm-61.046 0h-6.003c-.239 0-.406 0-.604.275-.197.275-19.601 26.737-19.601 26.737S115.017 1.245 114.821.97c-.195-.275-.364-.275-.601-.275h-5.999a.797.797 0 0 0-.799.792v34.377a.804.804 0 0 0 .799.793h5.999a.8.8 0 0 0 .797-.793V14.592c.14.19.285.38.392.53l15.54 21.21c.166.22.378.332.761.332h5.425c.37 0 .607-.108.766-.331l15.535-21.211c.108-.15.254-.332.393-.53v21.272a.8.8 0 0 0 .799.793h6.003a.8.8 0 0 0 .797-.793V1.487a.797.797 0 0 0-.797-.792Zm33.41.314a.76.76 0 0 0-.701-.332h-4.971a.776.776 0 0 0-.706.332S164.65 35.09 164.65 35.85c-.145.55.331.797.732.797h6.923a.524.524 0 0 0 .55-.275c.183-.28 17.12-25.428 17.357-25.783l.639-.951.64.951c.239.355 17.171 25.503 17.353 25.783a.53.53 0 0 0 .55.275h6.929c.401 0 .876-.247.732-.797 0-.76-23.019-34.842-23.019-34.842h.005ZM281.09.695h-6.004a.797.797 0 0 0-.799.792V25.95c-.2-.165-32.038-24.737-32.313-24.947a1.115 1.115 0 0 0-.817-.298h-5.11a1.244 1.244 0 0 0-1.243 1.24v33.48a1.244 1.244 0 0 0 1.243 1.242h5.11a1.245 1.245 0 0 0 1.246-1.241V10.983c.262.195.534.4.73.555l31.393 24.886a.778.778 0 0 0 .56.233h6.004a.798.798 0 0 0 .798-.793V1.487a.798.798 0 0 0-.798-.792Z" fill="#000"/><path fill-rule="evenodd" clip-rule="evenodd" d="M129.287 66.7h3.586V56.163l3.422 5.166c.191.285.36.56.56.859.126.192.466.755.607.848.165-.116 2.03-3.02 2.31-3.44l2.32-3.48v10.58h3.625V50.325h-3.837c-.166 0-1.033 1.534-1.116 1.673l-1.093 1.745c-.355.592-.733 1.16-1.082 1.748l-.943 1.517c-.09.165-.028.149-.188.19-.038-.177-.644-1.087-.783-1.3-.098-.15-.166-.29-.267-.443-.719-1.11-1.442-2.374-2.143-3.442-.19-.293-.368-.568-.547-.871-.069-.123-.442-.817-.596-.817h-3.838l.003 16.377Zm28.196 0h3.589V56.368c.166.108 3.856 5.013 3.949 5.137.174.229.318.411.497.635.179.223.318.429.48.643l2.723 3.573c.099.1.179.216.237.344h3.134V50.327h-3.591v9.997c-.154-.102-2.675-3.463-2.885-3.743-.166-.215-.304-.393-.471-.612l-3.838-5.04c-.079-.108-.396-.602-.522-.602h-3.302v16.374Zm41.337-8.416h-3.504V53.58h3.173c.963 0 1.631.101 2.25.456 1.415.807 1.681 4.248-1.919 4.248Zm7.05 8.417c-1.046-1.558-2.213-3.18-3.235-4.723-.098-.14-.166-.234-.252-.378-.126-.187-.457-.575-.475-.774.573-.048 1.657-.881 2.094-1.325 1.294-1.278 1.682-3.628 1.182-5.373a4.573 4.573 0 0 0-1.265-2.19c-1.392-1.399-3.273-1.614-5.302-1.614h-6.924v16.372h3.628v-5.209h2.838c.252.481 2.567 3.843 3.039 4.55.144.221.304.435.425.664h4.247Zm-29.868-.001h12.516v-3.082c0-.097-.028-.126-.126-.126h-8.799v-3.418h8.214V56.95c0-.093-.028-.12-.126-.12h-8.089v-3.293h8.925v-3.208h-12.516l.001 16.372Zm-80.083 0h1.834V53.329l1.308 1.657c.233.288.429.55.662.828l1.966 2.496c1.083 1.337 2.209 2.858 3.291 4.173l2.651 3.357c.131.177.602.704.645.858h1.539V50.325h-1.834v13.038c-.166-.11-3.081-3.874-3.52-4.44l-1.932-2.447c-.123-.149-.211-.267-.332-.416-.836-1.025-1.731-2.252-2.568-3.267-.15-.183-1.868-2.32-1.909-2.468h-1.793l-.008 16.376ZM84.365 52.408l1.363 3.102c.439.918.934 2.168 1.378 3.082l.928 2.07h-7.422c.332-.62 1.05-2.345 1.4-3.1.166-.36.309-.673.463-1.041l.704-1.543c.08-.195.146-.344.225-.527l.877-1.917.015-.028.07-.098Zm-8.341 14.293h1.919l.346-.78c.056-.11.075-.177.126-.288.166-.354.341-.719.48-1.063l.967-2.155h8.926c.242.458 1.16 2.627 1.419 3.208.084.193.444.928.457 1.082h2.045l-.686-1.524c-.075-.182-.154-.331-.234-.517l-.938-2.056a42.935 42.935 0 0 0-.228-.527c-.038-.085-.085-.166-.126-.247l-1.513-3.363c-.093-.182-.154-.346-.239-.513-.084-.168-.154-.34-.237-.512l-.69-1.558c-.422-.892-1.033-2.341-1.406-3.097l-.938-2.065a2.226 2.226 0 0 0-.123-.252c-.05-.107-.064-.177-.11-.266h-1.752c-.317.596-1.04 2.32-1.39 3.068l-1.172 2.579c-.075.182-.154.331-.234.517L76.023 66.7Z" fill="#000"/><path d="M153.441 50.329h-3.632V66.7h3.632V50.329Z" fill="#000"/><path fill-rule="evenodd" clip-rule="evenodd" d="M113.272 52.035h5.461v14.666h1.919V52.035h5.508V50.33h-12.888v1.706Z" fill="#000"/></svg>